# xmcd
#
# Track frame offsets:
#	150
#	20512
#	41546
#	57955
#	76754
#	105218
#	127230
#	152826
#	167871
#	185287
#	199746
#	218677
#
# Disc length: 3373 seconds
#
# Revision: 0
# Processed by: cddbd v1.5.2PL0 Copyright (c) Steve Scherf et al.
# Submitted via: EasyCDDAExtractor 15.3.0.1
#
DISCID=980d2b0c
DTITLE=Thalia - Viva Tour
DYEAR=2013
DGENRE=Latin
TTITLE0=Atmosfera
TTITLE1=Que Sera De Ti
TTITLE2=Tomame O Dejame
TTITLE3=Habitame Siempre
TTITLE4=Medley (Como, Enseñame A Vivir)
TTITLE5=Con Los Años Que Me Quedan (Feat. Jesus Navarro (Reik), Samo, Leonel G
TTITLE5=arcia)
TTITLE6=No Soy El Aire
TTITLE7=Hoy Ten Miedo De Mi
TTITLE8=Manias
TTITLE9=Mujeres (Feat. Maria Jose)
TTITLE10=Equivocada
TTITLE11=Medley Novelas (Quinceañera, Rosalinda, Marimar, Maria La Del Barrio)
EXTD=
EXTT0=
EXTT1=
EXTT2=
EXTT3=
EXTT4=
EXTT5=
EXTT6=
EXTT7=
EXTT8=
EXTT9=
EXTT10=
EXTT11=
PLAYORDER=
